<?xml version="1.0" encoding="UTF-8" standalone="no"?>
<svg
   xmlns:dc="http://purl.org/dc/elements/1.1/"
   xmlns:cc="http://creativecommons.org/ns#"
   xmlns:rdf="http://www.w3.org/1999/02/22-rdf-syntax-ns#"
   xmlns:svg="http://www.w3.org/2000/svg"
   xmlns="http://www.w3.org/2000/svg"
   xmlns:sodipodi="http://sodipodi.sourceforge.net/DTD/sodipodi-0.dtd"
   xmlns:inkscape="http://www.inkscape.org/namespaces/inkscape"
   inkscape:version="1.0 (1.0+r73+1)"
   sodipodi:docname="BMI_pyDeltaRCM_logo.svg"
   id="svg6"
   viewBox="0 0 13.23 13.23"
   version="1.1"
   height="50"
   width="50">
  <metadata
     id="metadata12">
    <rdf:RDF>
      <cc:Work
         rdf:about="">
        <dc:format>image/svg+xml</dc:format>
        <dc:type
           rdf:resource="http://purl.org/dc/dcmitype/StillImage" />
        <dc:title></dc:title>
      </cc:Work>
    </rdf:RDF>
  </metadata>
  <defs
     id="defs10" />
  <sodipodi:namedview
     inkscape:current-layer="g4"
     inkscape:window-maximized="1"
     inkscape:window-y="27"
     inkscape:window-x="51"
     inkscape:cy="21.572965"
     inkscape:cx="36.593242"
     inkscape:zoom="5.7070405"
     showgrid="false"
     id="namedview8"
     inkscape:window-height="713"
     inkscape:window-width="1315"
     inkscape:pageshadow="2"
     inkscape:pageopacity="0"
     guidetolerance="10"
     gridtolerance="10"
     objecttolerance="10"
     borderopacity="1"
     bordercolor="#666666"
     pagecolor="#ffffff" />
  <g
     id="g4"
     transform="translate(-6.56 -264.8)">
    <path
       style="fill:#b3b3b3"
       transform="matrix(0.2646,0,0,0.2646,6.56,264.8)"
       d="M 37.710938 0.22265625 L 37.707031 0.22851562 L 37.710938 0.22851562 L 37.710938 0.22265625 z M 37.710938 0.22851562 L 37.650391 4.4628906 L 0 4.4628906 L 0 11.982422 C 0 11.982422 1.144375 12.224353 2.109375 13.189453 C 3.074475 14.154553 2.8318156 14.153778 2.2285156 16.205078 C 1.6253156 18.256078 3.6775156 17.772797 5.7285156 19.341797 C 7.7795156 20.909797 9.1040313 21.997563 9.7070312 22.601562 C 10.310231 23.204763 8.9822438 25.857297 9.4648438 28.029297 C 9.9474437 30.201297 11.27575 28.995806 12.84375 28.753906 C 14.41175 28.512806 16.584437 28.632813 18.273438 28.632812 C 19.962438 28.632812 19.118384 29.116575 20.083984 31.046875 C 21.049184 32.976875 19.963778 32.011063 20.205078 32.976562 C 20.446378 33.941662 21.16945 34.182187 21.53125 35.992188 C 21.89315 37.801187 22.376953 38.164062 22.376953 38.164062 C 22.376953 38.164062 23.944516 39.009887 26.478516 39.492188 C 29.012516 39.974688 27.805234 36.958375 29.615234 36.234375 C 31.425234 35.510675 31.665891 36.716837 33.837891 35.148438 C 36.009891 33.580438 36.008422 36.716156 36.732422 38.285156 C 37.456322 39.853156 37.215338 39.612297 37.335938 41.904297 C 37.456538 44.197297 37.941538 42.627678 39.148438 43.955078 C 40.354438 45.282078 39.50825 44.919997 40.59375 47.091797 C 41.67975 49.263797 43.703219 47.942872 47.074219 49.263672 C 47.448719 49.410372 47.967884 49.652225 48.458984 49.765625 C 48.949884 49.879025 50 50.001953 50 50.001953 L 50 4.4023438 C 48.79 4.4159537 47.548437 4.43851 46.273438 4.46875 L 46.273438 0.22851562 L 37.710938 0.22851562 z M 15.677734 11.074219 L 17.660156 11.074219 L 17.660156 14.886719 C 18.378055 14.316953 19.231273 14.03125 20.222656 14.03125 C 20.917766 14.03125 21.538968 14.15127 22.085938 14.390625 C 22.644305 14.618642 23.089461 14.925173 23.419922 15.3125 C 23.761776 15.688539 24.018523 16.110904 24.189453 16.578125 C 24.360378 17.033933 24.445312 17.512286 24.445312 18.013672 C 24.445312 19.062022 24.080855 19.985546 23.351562 20.783203 C 22.622268 21.580885 21.58487 21.978516 20.240234 21.978516 C 19.328617 21.978516 18.469216 21.700956 17.660156 21.142578 L 17.660156 21.740234 L 15.677734 21.740234 C 14.925651 21.740234 14.548828 21.454531 14.548828 20.884766 C 14.548828 20.315 14.925651 20.03125 15.677734 20.03125 L 15.951172 20.03125 L 15.951172 12.783203 L 15.677734 12.783203 C 14.925651 12.783203 14.548828 12.499428 14.548828 11.929688 C 14.548828 11.359922 14.925651 11.074219 15.677734 11.074219 z M 38.910156 11.091797 L 40.925781 11.091797 L 40.925781 12.886719 L 38.910156 12.886719 L 38.910156 11.091797 z M 28.796875 14.048828 C 29.446404 14.048828 30.028232 14.328367 30.541016 14.886719 C 31.0538 14.328367 31.646041 14.048828 32.318359 14.048828 C 32.95649 14.048828 33.486581 14.26426 33.908203 14.697266 C 34.341222 15.118883 34.558594 15.648964 34.558594 16.287109 L 34.558594 20.03125 C 35.242308 20.03125 35.583984 20.315 35.583984 20.884766 C 35.583984 21.454531 35.207162 21.740234 34.455078 21.740234 L 32.847656 21.740234 L 32.847656 16.423828 C 32.847656 16.173135 32.802094 16.003266 32.710938 15.912109 C 32.631169 15.809565 32.477901 15.757813 32.25 15.757812 C 32.022084 15.757812 31.817079 15.809565 31.634766 15.912109 C 31.463841 16.014654 31.236055 16.219659 30.951172 16.527344 L 30.951172 20.03125 C 31.270237 20.03125 31.520802 20.110045 31.703125 20.269531 C 31.885438 20.417679 31.976562 20.622684 31.976562 20.884766 C 31.976562 21.454531 31.599742 21.740234 30.847656 21.740234 L 29.242188 21.740234 L 29.242188 16.423828 C 29.242187 16.184473 29.196625 16.014604 29.105469 15.912109 C 29.014312 15.809565 28.861047 15.757812 28.644531 15.757812 C 28.234304 15.757812 27.799558 16.014545 27.34375 16.527344 L 27.34375 20.03125 C 28.038857 20.03125 28.386719 20.315 28.386719 20.884766 C 28.386719 21.454531 28.011849 21.740234 27.259766 21.740234 L 25.755859 21.740234 C 24.99238 21.740234 24.609375 21.454531 24.609375 20.884766 C 24.609375 20.315 24.951052 20.03125 25.634766 20.03125 L 25.634766 15.980469 C 24.951052 15.957793 24.609375 15.67209 24.609375 15.125 C 24.609375 14.555234 24.99238 14.271484 25.755859 14.271484 L 27.34375 14.271484 L 27.34375 14.681641 C 27.86793 14.260023 28.352463 14.048828 28.796875 14.048828 z M 38.123047 14.271484 L 41.166016 14.271484 L 41.166016 20.03125 L 43.251953 20.03125 C 44.004039 20.03125 44.378906 20.315 44.378906 20.884766 C 44.378906 21.454531 44.004039 21.740234 43.251953 21.740234 L 37.371094 21.740234 C 36.61901 21.740234 36.244141 21.454531 36.244141 20.884766 C 36.244141 20.315 36.61901 20.03125 37.371094 20.03125 L 39.457031 20.03125 L 39.457031 15.980469 L 38.123047 15.980469 C 37.359567 15.980469 36.978516 15.694766 36.978516 15.125 C 36.978516 14.555234 37.359567 14.271484 38.123047 14.271484 z M 20.207031 15.740234 C 19.728432 15.740234 19.312237 15.820983 18.958984 15.980469 C 18.605734 16.139955 18.338573 16.34496 18.15625 16.595703 C 17.985325 16.846396 17.859065 17.084609 17.779297 17.3125 C 17.699529 17.540517 17.660156 17.764067 17.660156 17.980469 C 17.660156 18.652779 17.894122 19.203688 18.361328 19.636719 C 18.839927 20.058336 19.454948 20.269531 20.207031 20.269531 C 20.947719 20.269531 21.550375 20.058336 22.017578 19.636719 C 22.496177 19.203688 22.736328 18.657016 22.736328 17.996094 C 22.736328 17.791004 22.696956 17.575573 22.617188 17.347656 C 22.537419 17.108301 22.404979 16.861971 22.222656 16.611328 C 22.051732 16.360635 21.790755 16.15563 21.4375 15.996094 C 21.08425 15.82527 20.674235 15.740234 20.207031 15.740234 z "
       id="path2" />
    <g
       style="font-style:normal;font-weight:normal;font-size:4.52276px;line-height:1.25;font-family:sans-serif;letter-spacing:0px;word-spacing:0px;fill:#000000;fill-opacity:1;stroke:none;stroke-width:0.339207"
       id="text839"
       aria-label="bmi" />
  </g>
</svg>
