<svg width="50" height="50" version="1.1" viewBox="0 0 13.23 13.23" xmlns="http://www.w3.org/2000/svg">
<g transform="translate(-6.56 -264.8)">
<path transform="matrix(.2646 0 0 .2646 6.56 264.8)" d="m37.711 0.22266-0.003907 0.0058594h0.003907v-0.0058594zm0 0.0058594-0.060547 4.2344h-37.65v7.5195s1.1444 0.24193 2.1094 1.207c0.9651 0.9651 0.72244 0.96432 0.11914 3.0156-0.6032 2.051 1.449 1.5677 3.5 3.1367 2.051 1.568 3.3755 2.6558 3.9785 3.2598 0.6032 0.6032-0.72479 3.2557-0.24219 5.4277 0.4826 2.172 1.8109 0.96651 3.3789 0.72461 1.568-0.2411 3.7407-0.12109 5.4297-0.12109 1.689 0 0.84495 0.48376 1.8105 2.4141 0.9652 1.93-0.12021 0.96419 0.12109 1.9297 0.2413 0.9651 0.96437 1.2056 1.3262 3.0156 0.3619 1.809 0.8457 2.1719 0.8457 2.1719s1.5676 0.84582 4.1016 1.3281c2.534 0.4825 1.3267-2.5338 3.1367-3.2578 1.81-0.7237 2.0507 0.48246 4.2227-1.0859 2.172-1.568 2.1705 1.5677 2.8945 3.1367 0.7239 1.568 0.48292 1.3271 0.60352 3.6191 0.1206 2.293 0.6056 0.72338 1.8125 2.0508 1.206 1.327 0.35981 0.96492 1.4453 3.1367 1.086 2.172 3.1095 0.85108 6.4805 2.1719 0.3745 0.1467 0.89366 0.38855 1.3848 0.50195 0.4909 0.1134 1.541 0.23633 1.541 0.23633v-45.6c-1.21 0.01361-2.4516 0.036166-3.7266 0.066406v-4.2402h-8.5625zm-22.033 10.846h1.9824v3.8125c0.7179-0.56977 1.5711-0.85547 2.5625-0.85547 0.69511 0 1.3163 0.12002 1.8633 0.35938 0.55837 0.22802 1.0035 0.53455 1.334 0.92188 0.34185 0.37604 0.5986 0.7984 0.76953 1.2656 0.17092 0.45581 0.25586 0.93416 0.25586 1.4355 0 1.0484-0.36446 1.9719-1.0938 2.7695-0.72929 0.79768-1.7667 1.1953-3.1113 1.1953-0.91162 0-1.771-0.27756-2.5801-0.83594v0.59766h-1.9824c-0.75208 0-1.1289-0.2857-1.1289-0.85547 0-0.56977 0.37682-0.85352 1.1289-0.85352h0.27344v-7.248h-0.27344c-0.75208 0-1.1289-0.28378-1.1289-0.85352 0-0.56977 0.37682-0.85547 1.1289-0.85547zm23.232 0.017578h2.0156v1.7949h-2.0156v-1.7949zm-10.113 2.957c0.64953 0 1.2314 0.27954 1.7441 0.83789 0.51278-0.55835 1.105-0.83789 1.7773-0.83789 0.63813 0 1.1682 0.21543 1.5898 0.64844 0.43302 0.42162 0.65039 0.9517 0.65039 1.5898v3.7441c0.68371 0 1.0254 0.28375 1.0254 0.85352 0 0.56976-0.37682 0.85547-1.1289 0.85547h-1.6074v-5.3164c0-0.25069-0.045562-0.42056-0.13672-0.51172-0.079769-0.10254-0.23304-0.1543-0.46094-0.1543-0.22792 0-0.43292 0.051753-0.61523 0.1543-0.17092 0.10254-0.39871 0.30755-0.68359 0.61524v3.5039c0.31906 0 0.56963 0.078795 0.75195 0.23828 0.18231 0.14815 0.27344 0.35315 0.27344 0.61524 0 0.56976-0.37682 0.85547-1.1289 0.85547h-1.6055v-5.3164c-1e-6 -0.23936-0.045563-0.40922-0.13672-0.51172-0.091157-0.10254-0.24442-0.1543-0.46094-0.1543-0.41023 0-0.84497 0.25673-1.3008 0.76953v3.5039c0.69511 0 1.043 0.28375 1.043 0.85352 0 0.56976-0.37487 0.85547-1.127 0.85547h-1.5039c-0.76348 0-1.1465-0.2857-1.1465-0.85547 0-0.56977 0.34168-0.85352 1.0254-0.85352v-4.0508c-0.68371-0.022676-1.0254-0.30838-1.0254-0.85547 0-0.56977 0.383-0.85352 1.1465-0.85352h1.5879v0.41016c0.52418-0.42162 1.0087-0.63281 1.4531-0.63281zm9.3262 0.22266h3.043v5.7598h2.0859c0.75209 0 1.127 0.28375 1.127 0.85352 0 0.56976-0.37487 0.85547-1.127 0.85547h-5.8809c-0.75208 0-1.127-0.2857-1.127-0.85547 0-0.56977 0.37487-0.85352 1.127-0.85352h2.0859v-4.0508h-1.334c-0.76348 0-1.1445-0.2857-1.1445-0.85547s0.38105-0.85352 1.1445-0.85352zm-17.916 1.4688c-0.4786 0-0.89479 0.080749-1.248 0.24024-0.35325 0.15949-0.62041 0.36449-0.80273 0.61523-0.17092 0.25069-0.29718 0.48891-0.37695 0.7168-0.079768 0.22802-0.11914 0.45157-0.11914 0.66797 0 0.67231 0.23397 1.2232 0.70117 1.6562 0.4786 0.42162 1.0936 0.63281 1.8457 0.63281 0.74069 0 1.3433-0.2112 1.8105-0.63281 0.4786-0.43303 0.71875-0.9797 0.71875-1.6406 0-0.20509-0.039372-0.42052-0.11914-0.64844-0.079769-0.23936-0.21221-0.48568-0.39453-0.73633-0.17092-0.25069-0.4319-0.4557-0.78516-0.61523-0.35325-0.17082-0.76326-0.25586-1.2305-0.25586z" fill="#b3b3b3"/>
</g>
</svg>
